<svg width="55" height="55" viewBox="0 0 55 55" fill="none" xmlns="http://www.w3.org/2000/svg">
<rect width="55" height="55" rx="27.5" fill="url(#paint0_linear_242_233)" fill-opacity="0.2"/>
<path d="M27.4573 42.4978C27.4258 42.1785 27.3943 41.8592 27.3629 41.54C27.1485 39.3537 26.9919 37.1584 26.5205 35.0073C26.3594 34.2723 26.1323 33.5493 25.8918 32.8352C25.329 31.1634 24.1517 30.0695 22.554 29.3838C21.2148 28.8096 19.7999 28.5195 18.3686 28.3206C16.4448 28.0529 14.5144 27.8316 12.5869 27.5894C12.5592 27.5856 12.5322 27.5736 12.5 27.5176C12.7788 27.4877 13.0583 27.4585 13.3371 27.4271C15.1289 27.226 16.9252 27.054 18.7118 26.8147C20.2158 26.6136 21.6854 26.2599 23.0531 25.5616C24.644 24.7496 25.6033 23.4658 26.0537 21.7513C26.4441 20.2656 26.6906 18.7583 26.881 17.2397C27.0736 15.7009 27.2519 14.1599 27.4378 12.6204C27.44 12.6032 27.455 12.5875 27.5045 12.5C27.5622 12.9882 27.6042 13.4122 27.6626 13.8346C27.9789 16.1181 28.2726 18.4046 28.6301 20.6821C28.789 21.693 29.1434 22.6583 29.6246 23.5742C30.0322 24.3503 30.6168 24.9253 31.3864 25.341C32.5412 25.9653 33.786 26.3242 35.0682 26.5142C37.4723 26.8701 39.8853 27.1609 42.2947 27.4787C42.3614 27.4877 42.4281 27.4981 42.5 27.5699C42.0856 27.6193 41.6719 27.6679 41.2575 27.7172C38.7755 28.0118 36.2867 28.2399 33.8377 28.7842C31.8952 29.2163 30.4122 30.2175 29.5496 32.0225C29.2131 32.7261 28.9111 33.4708 28.7567 34.2304C28.4165 35.9038 28.1632 37.5951 27.9077 39.2841C27.7466 40.3504 27.6469 41.4256 27.5187 42.497C27.4978 42.4978 27.4768 42.4993 27.4565 42.5L27.4573 42.4978Z" fill="url(#paint1_linear_242_233)"/>
<path d="M27.4573 42.4978C27.4258 42.1785 27.3943 41.8592 27.3629 41.54C27.1485 39.3537 26.9919 37.1584 26.5205 35.0073C26.3594 34.2723 26.1323 33.5493 25.8918 32.8352C25.329 31.1634 24.1517 30.0695 22.554 29.3838C21.2148 28.8096 19.7999 28.5195 18.3686 28.3206C16.4448 28.0529 14.5144 27.8316 12.5869 27.5894C12.5592 27.5856 12.5322 27.5736 12.5 27.5176C12.7788 27.4877 13.0583 27.4585 13.3371 27.4271C15.1289 27.226 16.9252 27.054 18.7118 26.8147C20.2158 26.6136 21.6854 26.2599 23.0531 25.5616C24.644 24.7496 25.6033 23.4658 26.0537 21.7513C26.4441 20.2656 26.6906 18.7583 26.881 17.2397C27.0736 15.7009 27.2519 14.1599 27.4378 12.6204C27.44 12.6032 27.455 12.5875 27.5045 12.5C27.5622 12.9882 27.6042 13.4122 27.6626 13.8346C27.9789 16.1181 28.2726 18.4046 28.6301 20.6821C28.789 21.693 29.1434 22.6583 29.6246 23.5742C30.0322 24.3503 30.6168 24.9253 31.3864 25.341C32.5412 25.9653 33.786 26.3242 35.0682 26.5142C37.4723 26.8701 39.8853 27.1609 42.2947 27.4787C42.3614 27.4877 42.4281 27.4981 42.5 27.5699C42.0856 27.6193 41.6719 27.6679 41.2575 27.7172C38.7755 28.0118 36.2867 28.2399 33.8377 28.7842C31.8952 29.2163 30.4122 30.2175 29.5496 32.0225C29.2131 32.7261 28.9111 33.4708 28.7567 34.2304C28.4165 35.9038 28.1632 37.5951 27.9077 39.2841C27.7466 40.3504 27.6469 41.4256 27.5187 42.497C27.4978 42.4978 27.4768 42.4993 27.4565 42.5L27.4573 42.4978Z" fill="url(#paint2_radial_242_233)" fill-opacity="0.2"/>
<defs>
<linearGradient id="paint0_linear_242_233" x1="0" y1="0" x2="55" y2="55" gradientUnits="userSpaceOnUse">
<stop offset="0.298077" stop-color="#B5179E"/>
<stop offset="1" stop-color="#4361EE"/>
</linearGradient>
<linearGradient id="paint1_linear_242_233" x1="12.5" y1="12.5" x2="42.5" y2="42.5" gradientUnits="userSpaceOnUse">
<stop offset="0.278846" stop-color="#3A0CA3"/>
<stop offset="1" stop-color="#F72585"/>
</linearGradient>
<radialGradient id="paint2_radial_242_233" cx="0" cy="0" r="1" gradientUnits="userSpaceOnUse" gradientTransform="translate(27.5 27.5) rotate(90) scale(15)">
<stop stop-color="#7209B7"/>
<stop offset="1" stop-color="#7209B7" stop-opacity="0"/>
</radialGradient>
</defs>
</svg>
